<?xml version="1.0" encoding="UTF-8" standalone="no"?>
<!-- Created with Inkscape (http://www.inkscape.org/) -->

<svg
   xmlns:dc="http://purl.org/dc/elements/1.1/"
   xmlns:cc="http://creativecommons.org/ns#"
   xmlns:rdf="http://www.w3.org/1999/02/22-rdf-syntax-ns#"
   xmlns:svg="http://www.w3.org/2000/svg"
   xmlns="http://www.w3.org/2000/svg"
   xmlns:sodipodi="http://sodipodi.sourceforge.net/DTD/sodipodi-0.dtd"
   xmlns:inkscape="http://www.inkscape.org/namespaces/inkscape"
   width="210mm"
   height="297mm"
   viewBox="0 0 744.09448819 1052.3622047"
   id="svg2"
   version="1.1"
   inkscape:version="0.91 r13725"
   sodipodi:docname="coin.svg">
  <defs
     id="defs4">
    <inkscape:perspective
       sodipodi:type="inkscape:persp3d"
       inkscape:vp_x="0 : 526.1811 : 1"
       inkscape:vp_y="0 : 1000 : 0"
       inkscape:vp_z="744.09449 : 526.1811 : 1"
       inkscape:persp3d-origin="372.04724 : 350.7874 : 1"
       id="perspective3368" />
  </defs>
  <sodipodi:namedview
     id="base"
     pagecolor="#ffffff"
     bordercolor="#666666"
     borderopacity="1.0"
     inkscape:pageopacity="0.0"
     inkscape:pageshadow="2"
     inkscape:zoom="0.35"
     inkscape:cx="-112.14286"
     inkscape:cy="520"
     inkscape:document-units="px"
     inkscape:current-layer="layer1"
     showgrid="false"
     inkscape:snap-grids="false"
     inkscape:snap-nodes="false"
     inkscape:window-width="1280"
     inkscape:window-height="697"
     inkscape:window-x="-8"
     inkscape:window-y="-8"
     inkscape:window-maximized="1" />
  <metadata
     id="metadata7">
    <rdf:RDF>
      <cc:Work
         rdf:about="">
        <dc:format>image/svg+xml</dc:format>
        <dc:type
           rdf:resource="http://purl.org/dc/dcmitype/StillImage" />
        <dc:title></dc:title>
      </cc:Work>
    </rdf:RDF>
  </metadata>
  <g
     inkscape:label="Layer 1"
     inkscape:groupmode="layer"
     id="layer1"
     style="display:inline">
    <path
       style="fill:#c8b7b7"
       d="m 323.25563,227.35671 c -43.38252,4.10632 -84.63042,31.48418 -107.43322,69.89517 -28.02051,45.26491 -30.37431,103.94239 -6.68572,148.5758 20.39911,39.87086 61.83829,67.79791 107.59395,69.06731 44.60625,2.20333 90.2382,-21.67347 117.16849,-59.14349 31.54619,-42.4552 38.9795,-100.43521 19.94853,-147.01382 -16.56791,-42.38823 -55.28892,-74.76268 -100.94537,-80.6996 -9.74476,-1.46604 -19.71116,-1.36694 -29.64662,-0.68136 z"
       id="path3350"
       inkscape:connector-curvature="0" />
    <path
       style="fill:#2b0000"
       id="path3354"
       d="m 344.79971,327.44787 c -5.66361,-5.82652 -12.01815,-10.95695 -18.50629,-15.8308 -3.04566,-2.48616 -6.23789,-4.98538 -9.84726,-6.59691 -2.72201,-0.68406 -5.52824,-0.68822 -8.31479,-0.70693 -4.63768,-0.22353 -8.61106,2.35879 -12.85539,3.81455 -10.43213,6.4961 3.71193,-2.34543 22.64217,-12.82597 0.68954,-0.38176 -1.26813,0.9389 -1.86376,1.45507 -1.77802,1.54084 -3.3637,3.32408 -4.94303,5.06111 -2.73572,3.1856 -5.84641,6.05052 -8.47002,9.32683 -2.51681,3.73106 -5.13123,7.36779 -7.55448,11.1638 -1.31727,1.92644 -1.93896,4.21613 -3.07243,6.22383 -1.01071,2.60753 -0.88103,5.52236 -0.96906,8.28218 0.0356,2.80459 -0.0754,5.60814 -0.0139,8.4126 0.17045,2.44079 -0.23952,4.96021 0.17031,7.37756 0.3938,3.01516 0.58895,2.56431 2.84729,3.51358 1.2412,0.81275 2.93568,3.4974 4.49703,2.51889 0.14471,0.12407 2.24986,0.55079 2.29144,0.54744 0.90561,-0.073 -0.73117,-1.65728 1.89811,-0.32867 1.01088,-0.37342 4.94864,-0.12927 5.88959,0.2149 1.02407,-0.43845 4.84455,-0.31962 5.77546,0.0252 0.96555,-0.46925 4.81174,-0.33853 5.71538,-0.002 2.04704,-1.10609 -0.74599,0.14783 1.88096,0.0181 0.22172,-0.011 0.20354,-0.5121 0.42553,-0.51229 0.41683,-3.6e-4 0.72528,0.53624 1.14134,0.51093 1.64818,-0.10028 -2.49092,-2.3578 1.19339,0.0599 0.84294,-0.0107 2.74083,0.15607 3.48675,0.11992 0.35011,-0.017 0.60934,-0.41526 0.95954,-0.43017 3.34941,-0.14257 -0.11708,0.91525 2.55399,-0.0683 2.70007,0.13008 5.32726,0.37435 7.9664,1.6936 2.96082,1.26176 6.14258,1.69471 9.33804,2.14515 3.15068,0.0203 5.79673,1.38838 8.7656,2.21243 3.26681,0.77958 6.92057,0.89706 9.51461,3.01255 2.27979,1.02268 3.34123,3.32568 5.0673,4.94575 2.66112,0.26703 4.49818,3.01733 6.65934,4.396 2.3317,2.71571 2.98014,6.33587 4.89316,9.27601 1.69161,2.38034 3.23442,4.7292 4.39223,7.42937 1.01535,2.16124 1.23092,4.48322 1.62861,6.79564 0.71506,4.24111 0.78342,8.55647 0.88365,12.84597 -0.37691,5.46958 -2.19898,10.8685 -4.29981,15.91761 -1.67107,3.2621 -3.36401,6.64522 -5.97623,9.25235 -10.58273,6.96683 -21.83366,13.07171 -32.78978,19.27195 -2.38653,1.35057 -5.20023,1.81073 -7.67315,3.029 -4.00287,1.69321 -8.2965,2.89452 -12.63579,3.25347 -4.76284,0.19057 -9.53265,0.13325 -14.29804,0.0922 -6.37496,-0.0383 -12.75006,-0.0374 -19.12511,-0.0381 -2.71128,-0.30034 -5.54247,0.35052 -8.24556,0.0322 -2.04574,-0.24094 -3.55419,-1.13585 -5.65148,-1.03228 -4.53239,-0.73812 -8.53562,-3.12172 -12.32958,-5.62603 -2.36622,-1.78978 -5.31355,-2.57249 -7.86793,-3.98181 -2.87781,-1.58776 -0.25762,-0.68244 -2.39707,-1.33195 -2.14927,-1.85146 -3.69419,-4.19849 -5.06127,-6.64908 -0.933,-2.10997 -1.94123,-4.24923 -2.66006,-6.44493 -0.36888,-1.15202 -0.19442,-0.52964 -0.50287,-1.87277 0,0 27.59906,-14.7279 27.59906,-14.7279 l 0,0 c 0.15239,1.08162 0.0415,0.53518 0.3419,1.6374 0.44058,2.03903 1.6357,3.96513 2.34245,5.88579 0.90841,1.87593 2.21412,3.8136 4.00774,4.92757 3.35472,2.0428 6.97949,3.60416 10.27296,5.75587 3.62523,2.13377 7.32556,4.1441 11.62328,4.31567 4.50381,0.88854 8.96877,1.15936 13.57645,0.91859 6.37647,0.0152 12.75297,0.0449 19.12947,0.0321 4.73448,-0.0355 9.50012,0.0709 14.20331,-0.55313 4.13846,-0.81676 8.18896,-2.02235 12.0027,-3.85232 1.04317,-0.40513 4.03424,-1.54841 5.01878,-2.00686 0.83116,-0.38704 3.22748,-1.73985 2.43714,-1.27511 -42.43372,24.95203 -29.35475,17.26542 -20.31977,11.62408 3.38708,-1.41163 4.95936,-4.70472 6.6466,-7.81424 2.61238,-4.3758 3.91326,-9.67133 5.01941,-14.58707 -0.0999,-4.10157 -0.16154,-8.23003 -0.83693,-12.28628 -0.45515,-2.14877 -0.44108,-4.13352 -1.24583,-6.19332 -1.15261,-2.50806 -2.54932,-4.76505 -4.14453,-7.0382 -1.67647,-2.67927 -2.35406,-5.79815 -4.33336,-8.27377 -2.19938,-1.82533 -4.51114,-3.35604 -6.93782,-4.8164 -1.46002,-1.59013 -2.66378,-3.35641 -4.65439,-4.34679 -2.96042,-0.9345 -6.00179,-1.52887 -8.99878,-2.33195 -2.81463,-0.90568 -5.59942,-1.50929 -8.54001,-1.87616 -3.32172,-0.61212 -6.62499,-1.20036 -9.71506,-2.64719 -2.40365,-0.54654 -4.70822,-0.75502 -7.12623,-0.41527 -2.56713,-0.14425 -5.12405,0.34511 -7.65914,-0.37086 -0.40529,0.71791 -3.4258,0.0189 -4.4593,0.078 -1.77596,0.5136 -3.84662,-0.0592 -5.71771,-0.003 -1.80534,0.50193 -3.90839,-0.0941 -5.80216,-0.0712 -1.87903,0.39181 -3.91267,-0.23395 -5.85252,-0.13022 -1.30253,1.14885 -2.76449,-0.32943 -4.2476,-0.28436 -1.82993,-0.90824 -3.26298,-2.13644 -4.94098,-3.25619 -2.37324,-1.05733 -4.31589,-3.16456 -4.27567,-5.90906 -0.87647,-2.63623 -0.46369,-5.36906 -0.53389,-8.12542 0.0475,-2.82439 -0.098,-5.64837 -5.5e-4,-8.4718 0.005,-3.07351 0.14315,-6.15115 0.4081,-9.21278 0.58727,-2.33578 2.02796,-4.47094 3.0131,-6.67858 1.97972,-4.1231 4.99091,-7.61124 7.50061,-11.39622 2.08799,-3.88551 5.60176,-6.43809 8.25953,-9.90301 12.14133,-11.44883 12.71234,-17.78292 37.32694,-24.7417 4.39978,-1.74429 8.81135,-3.36893 13.64886,-2.94562 3.14029,0.11918 6.30329,0.46386 9.16352,1.87255 3.50502,2.09847 6.90286,4.3964 9.87147,7.22276 6.38821,5.09052 12.65286,10.33398 18.6752,15.85631 0,0 -26.29941,16.44611 -26.29941,16.44611 z"
       inkscape:connector-curvature="0" />
    <path
       style="fill:#2b0000"
       id="path3358"
       d="m 332.90391,244.26294 c -0.33995,13.02712 -0.23968,26.06067 -0.15483,39.09043 0.0508,7.92181 0.13691,15.84356 0.11965,23.7656 0.26939,7.0827 -0.39507,14.14102 -0.44081,21.21292 -0.34715,2.73434 -0.25581,5.53731 -0.72387,8.25531 -0.2655,2.3147 0.0114,4.56731 0.2668,6.87153 0.57355,5.47185 0.6539,10.97522 0.8753,16.46745 -0.40267,4.46315 1.09177,8.7023 1.45889,13.09012 0.62399,3.79823 0.40475,7.61921 0.35946,11.44321 0.0437,4.66152 1.10635,9.14791 2.09371,13.67149 0.58413,3.62659 1.95502,7.05621 2.70315,10.62553 0.47833,2.77861 1.00714,5.5533 1.37238,8.35205 0.44338,4.52615 0.55066,9.07952 0.65861,13.624 -0.0783,4.47855 -0.0453,8.87417 0.71645,13.29366 1.21565,6.79338 1.59691,13.68162 1.87687,20.5641 0.23263,4.27979 0.29667,8.56742 0.32862,12.85272 -0.01,3.01662 0.002,6.0323 -0.0251,9.04893 0.0208,2.73339 0.0149,5.46698 0.0165,8.20042 0.1056,2.00829 -0.10572,3.97582 -0.39952,5.95716 0,0 -20.38463,10.07417 -20.38463,10.07417 l 0,0 c 0.19681,-1.92721 0.89956,-3.7258 0.54413,-5.71882 0.002,-2.74138 -0.003,-5.48302 0.0249,-8.22427 -0.0195,-3.01195 0.0111,-6.02256 0.007,-9.03444 0.0247,-4.29582 0.0287,-8.59139 -0.0797,-12.88668 -0.23539,-6.77099 -0.58242,-13.55682 -1.82541,-20.23183 -0.85592,-4.51717 -1.14829,-8.97678 -0.96488,-13.57915 -0.0396,-4.47 -0.0767,-8.94822 -0.5411,-13.39907 -0.35775,-2.80502 -0.98827,-5.52791 -1.37752,-8.28148 -0.30963,-3.55428 -2.31068,-6.92869 -2.5206,-10.56903 -1.01271,-4.64266 -2.23878,-9.20845 -2.38721,-13.99004 -0.24843,-3.80941 0.6036,-7.63347 -0.31351,-11.43769 0.0369,-4.42727 -2.04977,-8.63753 -1.45346,-13.13554 -0.0473,-5.42796 -0.22496,-10.86317 -0.79935,-16.26374 -0.2908,-2.22758 -1.17182,-4.94169 -0.44087,-6.96907 -0.43876,-2.67873 0.73471,-5.5852 0.83183,-8.43651 3e-4,-7.08938 1.02422,-14.13181 0.51986,-21.24509 -0.0174,-7.96268 0.0693,-15.92508 0.11964,-23.88753 0.084,-12.97713 0.18802,-25.95823 -0.15482,-38.93265 0,0 20.09353,-10.23817 20.09353,-10.23817 z"
       inkscape:connector-curvature="0" />
    <ellipse
       style="opacity:0.15;fill:#782121"
       id="path3484"
       cx="331.42859"
       cy="373.7908"
       rx="180"
       ry="187.14285" />
    <rect
       style="opacity:0.32000002;fill:#803300"
       id="rect3518"
       width="122.85714"
       height="80"
       x="508.57144"
       y="332.36221"
       ry="0.98084402" />
    <rect
       style="opacity:0.32000002;fill:#803300"
       id="rect3520"
       width="122.85714"
       height="68.571426"
       x="184.22406"
       y="57.738689"
       ry="0.98084402"
       transform="matrix(0.80032874,0.59956142,-0.59956142,0.80032874,0,0)" />
    <rect
       style="opacity:0.32000002;fill:#803300"
       id="rect3522"
       width="105.85252"
       height="74.284172"
       x="546.24915"
       y="-359.94531"
       ry="0.98082364"
       transform="matrix(-0.0141882,0.99989934,-0.99994941,-0.01005905,0,0)" />
    <rect
       style="opacity:0.32000002;fill:#803300"
       id="rect3524"
       width="117.14286"
       height="65.714287"
       x="-183.97615"
       y="303.86429"
       ry="0.98084402"
       transform="matrix(0.00794635,-0.99996843,0.99996843,0.00794635,0,0)"
       inkscape:transform-center-y="-11.428571" />
    <rect
       style="opacity:0.32000002;fill:#803300"
       id="rect3526"
       width="120"
       height="71.428574"
       x="37.142845"
       y="332.36221"
       ry="0.98084402" />
    <rect
       style="opacity:0.32000002;fill:#803300"
       id="rect3528"
       width="108.57143"
       height="65.714287"
       x="668.03894"
       y="104.71714"
       ry="0.98084402"
       transform="matrix(0.81143401,0.58444405,-0.58444405,0.81143401,0,0)"
       inkscape:transform-center-x="-25.714286"
       inkscape:transform-center-y="5.7142857" />
    <rect
       style="opacity:0.32000002;fill:#803300"
       id="rect3530"
       width="114.28571"
       height="60"
       x="229.43646"
       y="451.9184"
       ry="0.98084402"
       transform="matrix(0.80353284,-0.59526043,0.59526043,0.80353284,0,0)" />
    <rect
       style="opacity:0.32000002;fill:#803300"
       id="rect3532"
       width="120"
       height="68.571426"
       x="-203.41905"
       y="479.22195"
       ry="0.98084402"
       transform="matrix(0.86153846,-0.50769231,0.50769231,0.86153846,0,0)" />
    <ellipse
       style="opacity:0.07000002;fill:#803300"
       id="path3534"
       cx="330"
       cy="360.93362"
       rx="307.14285"
       ry="291.42856" />
    <path
       style="opacity:0.07000002;fill:#800000"
       d="m 353,606.12663 0,-45.88182 9.28571,-1.85541 c 22.2884,-4.45349 46.8424,-14.41968 64.19549,-26.0562 20.14186,-13.50658 23.60478,-15.07347 17.76665,-8.03895 -2.55916,3.08359 -2.77734,5.11043 -0.69202,6.42857 12.80662,8.09513 78.0156,56.21522 78.0156,57.57056 0,3.37512 -37.42857,26.23842 -59.18426,36.1528 -25.90336,11.80454 -66.17692,23.12523 -91.53003,25.72862 L 353,652.00846 l 0,-45.88183 z"
       id="path3542"
       inkscape:connector-curvature="0" />
    <path
       style="opacity:0.07000002;fill:#800000"
       d="M 351.11147,621.19597 C 352.15016,604.21992 353,583.10935 353,574.28361 l 0,-16.04681 19.19194,-3.64068 c 22.68969,-4.3042 48.31223,-16.70183 67.19885,-32.51461 C 446.87586,515.81466 453,511.93525 453,513.4606 c 0,1.52534 -1.92857,4.37392 -4.28571,6.33018 -2.35715,1.95625 -4.28572,5.24172 -4.28572,7.30105 0,2.05932 17.90182,16.47947 39.78181,32.04477 l 39.78181,28.30056 -18.40552,12.10093 c -39.50475,25.97288 -92.47097,45.29478 -138.41265,50.49249 l -17.95107,2.03094 1.88852,-30.86555 z"
       id="path3544"
       inkscape:connector-curvature="0" />
    <path
       style="opacity:0.07000002;fill:#800000"
       d="m 350.79521,599.88766 1.48652,-51.84711 -42.31277,0.5542 c -41.59627,0.5448 -42.58026,0.41445 -58.10978,-7.69635 -20.54873,-10.73222 -52.30345,-35.28988 -54.78829,-42.37077 -2.27344,-6.47845 -23.88619,-42.35256 -26.78009,-44.45114 -1.08348,-0.78571 -4.32628,-7.21429 -7.20623,-14.28571 -4.48584,-11.01457 -5.17759,-20.4158 -4.82686,-65.59991 0.50303,-64.80601 4.41759,-78.73986 32.94206,-117.25724 21.94912,-29.63848 66.6095,-58.53134 100.2978,-64.88726 4.75491,-0.8971 9.931,-2.59206 11.50243,-3.76657 3.46346,-2.58864 65.77847,-3.31511 63.20015,-0.73679 -0.99976,0.99976 7.78419,4.84507 19.51988,8.54515 26.31302,8.29607 59.78794,30.19441 76.84326,50.26866 21.97934,25.8699 30.28545,41.39056 43.88645,82.00538 3.12623,9.33539 0.38769,88.20277 -3.51271,101.16276 -4.40032,14.6212 -17.61774,42.2329 -21.31263,44.52287 -2.96474,1.83749 -37.19583,51.87889 -37.19583,54.37549 0,1.01583 17.91689,14.59623 39.81529,30.17863 l 39.81525,28.33168 -22.99414,14.73892 c -38.1116,24.42897 -88.73939,42.45237 -134.91062,48.02794 l -16.84566,2.03426 1.48652,-51.84709 z m -3.09812,-87.07674 c 64.96592,-13.76986 112.13962,-70.90554 116.01962,-140.52023 2.43458,-43.6804 -9.49237,-76.80173 -38.67236,-107.39389 -31.46319,-32.98588 -76.15567,-46.10337 -119.30121,-35.01556 -26.91931,6.91789 -46.98595,18.43806 -67.02885,38.48096 -30.89087,30.89087 -45.74628,66.79735 -45.68038,110.41242 0.0622,41.15518 14.76872,76.01267 43.16001,102.29798 32.36328,29.96269 69.71705,40.59509 111.50317,31.73832 z"
       id="path3546"
       inkscape:connector-curvature="0" />
    <path
       style="opacity:0.07000002;fill:#800000"
       d="m 568.13893,542.50621 c 0.97538,-3.11766 -10.78925,-13.14621 -39.7684,-33.89985 -22.63444,-16.20984 -41.82702,-30.56216 -42.65016,-31.89403 -0.82315,-1.33188 1.60876,-8.57694 5.40424,-16.10015 3.79547,-7.5232 9.20451,-21.02475 12.02008,-30.00344 l 5.11922,-16.32489 62.37062,-0.81797 c 34.30384,-0.44988 62.36946,-0.36069 62.36804,0.1982 -0.001,0.55888 -1.95402,8.54704 -4.33912,17.75145 -6.58044,25.39473 -21.73335,59.27905 -36.39544,81.38598 -14.80264,22.31885 -26.2131,36.36597 -24.12908,29.7047 z"
       id="path3548"
       inkscape:connector-curvature="0" />
    <path
       style="opacity:0.07000002;fill:#800000"
       d="m 526.8811,507.92618 -44.69033,-31.84819 11.1189,-22.99247 c 6.1154,-12.64586 11.13859,-25.63191 11.16265,-28.85789 0.024,-3.22599 0.98835,-7.20101 2.14286,-8.83339 1.34581,-1.90287 24.35097,-2.92819 64.10559,-2.85714 l 62.00649,0.11082 -1.62491,7.14286 c -3.80123,16.70957 -15.9309,50.10203 -24.17488,66.55237 -7.25741,14.48173 -32.63686,53.47035 -34.78612,53.43943 -0.31346,-0.005 -20.68057,-14.33989 -45.26025,-31.8564 z"
       id="path3550"
       inkscape:connector-curvature="0" />
    <path
       style="opacity:0.07000002;fill:#800000"
       d="M 633.37462,367.64792 633,331.21935 l -62.52827,0 -62.52828,0 -4.86591,-14.87667 c -2.67625,-8.18216 -7.9671,-20.99657 -11.75744,-28.47644 -7.91122,-15.61205 -8.20935,-16.9688 -3.3201,-15.10911 4.40221,1.67444 92.45716,-63.60078 91.33628,-67.70767 -1.48258,-5.43216 -32.0543,-45.25868 -34.74157,-45.25868 -1.45758,0 -22.64871,14.89632 -47.0914,33.10295 -38.73166,28.85005 -44.07619,33.78507 -41.59977,38.4123 1.56281,2.92015 4.12027,6.0997 5.68325,7.06567 1.56298,0.96597 2.84178,3.06899 2.84178,4.67337 0,1.60438 -7.20991,-3.50903 -16.02202,-11.36314 -17.41218,-15.51923 -41.46113,-29.44129 -64.2199,-37.17723 -7.95349,-2.70347 -14.36705,-5.83436 -14.25234,-6.95752 0.1147,-1.12317 0.20855,-27.7716 0.20855,-59.21874 l 0,-57.176621 12.14285,1.854324 c 38.77918,5.92193 91.15217,26.748193 125.5878,49.940327 43.54416,29.32666 88.43671,83.18946 107.49891,128.97892 17.39266,41.77904 26.13041,98.36332 20.84799,135.00824 -2.21474,15.364 -2.51004,13.3628 -2.84579,-19.28571 z"
       id="path3552"
       inkscape:connector-curvature="0" />
    <path
       style="opacity:0.07000002;fill:#800000"
       d="m 632.67006,364.07649 -1.09863,-31.42857 -62.14928,0 -62.14929,0 -4.1914,-14.42313 c -2.30527,-7.93273 -7.92756,-21.83011 -12.49397,-30.88307 -5.72156,-11.34308 -6.99185,-15.95698 -4.08627,-14.842 2.566,0.98467 21.158,-10.84255 47.50039,-30.21717 23.80626,-17.50931 44.25781,-32.69942 45.4479,-33.75581 3.12765,-2.77627 -32.32723,-49.28461 -36.38445,-47.72771 -1.87121,0.71805 -22.87693,15.72789 -46.67938,33.3552 l -43.27719,32.04965 5.8546,8.22202 c 8.37972,11.76824 4.78912,10.24521 -15.34094,-6.5072 -18.95651,-15.77577 -43.20802,-28.55809 -64.55724,-34.02639 l -13.20777,-3.38298 1.87446,-26.07356 c 1.03094,-14.34046 1.99523,-41.14857 2.14285,-59.57357 l 0.26841,-33.499995 9.28571,1.622451 c 103.45892,18.076909 187.66264,80.111694 230.57239,169.867904 16.46784,34.44649 23.29395,63.18221 25.06361,105.50964 0.82124,19.64286 0.86564,38.28572 0.0987,41.42858 -0.76699,3.14285 -1.88891,-8.42858 -2.49316,-25.71429 z"
       id="path3554"
       inkscape:connector-curvature="0" />
    <path
       style="opacity:0.07000002;fill:#800000"
       d="m 210.14286,231.26747 c 0,-2.79911 -88.18738,-70.41227 -95.49649,-73.21704 -2.7505,-1.05547 -0.35275,-4.78881 7.91857,-12.32939 39.2595,-35.79104 108.722,-67.288001 161.58481,-73.268747 l 17.42168,-1.971038 0,58.737735 0,58.73774 -16.2792,4.73249 c -20.7041,6.01884 -44.74308,18.13988 -61.80515,31.16365 -7.33932,5.60223 -13.34422,8.9388 -13.34422,7.4146 z"
       id="path3556"
       inkscape:connector-curvature="0" />
    <path
       style="opacity:0.07000002;fill:#800000"
       d="m 210.14286,231.74871 c 0,-1.66511 -21.89384,-19.32516 -48.65297,-39.24456 -54.63583,-40.6707 -52.64432,-36.27947 -25.76247,-56.80551 42.0858,-32.13526 102.54362,-57.472923 150.12972,-62.918843 L 303,70.817908 302.16558,127.20433 c -0.5833,39.41638 0.13028,56.98264 2.371,58.36749 1.76299,1.08958 -5.38401,4.13866 -15.88221,6.77572 -20.75244,5.21285 -47.11488,17.49116 -60.22862,28.05148 -16.5028,13.2895 -18.28289,14.39455 -18.28289,11.34969 z"
       id="path3558"
       inkscape:connector-curvature="0" />
    <path
       style="opacity:0.07000002;fill:#800000"
       d="M 55.146986,491.63975 C 39.339916,459.52618 34.188855,445.46693 28.640643,419.29357 12.648076,343.84961 27.390225,269.60778 71.65982,202.64792 83.338854,184.98282 98.714286,167.7737 98.714286,172.3669 c 0,1.17899 -5.785715,9.6626 -12.857143,18.85245 C 78.785714,200.4092 73,209.16846 73,210.68437 c 0,1.51591 21.921354,19.16185 48.71412,39.21319 36.63218,27.41504 48.26987,37.59174 46.92294,41.03225 -0.98514,2.51639 -4.44453,12.61097 -7.68753,22.43239 l -5.89635,17.85715 -59.598017,0 -59.59802,0 0,37.08489 0,37.08489 59.061677,0.77225 59.06167,0.77225 3.73482,16.45318 c 2.05416,9.04925 5.56721,19.99662 7.80679,24.32749 l 4.07196,7.8743 -48.43012,28.30689 c -26.636563,15.56877 -49.334511,29.882 -50.439886,31.8072 -1.204783,2.09831 -7.443968,-7.53977 -15.577068,-24.06294 z"
       id="path3560"
       inkscape:connector-curvature="0" />
    <path
       style="opacity:0.07000002;fill:#800000"
       d="M 53.826449,487.11612 C 36.11733,449.51469 28.037379,421.39357 24.770695,385.99172 19.800673,332.13037 29.396811,283.0244 54.64478,233.11813 c 11.258897,-22.25484 39.588709,-61.89878 44.233263,-61.89878 1.586717,0 -3.586726,8.54888 -11.496549,18.99752 C 79.471671,200.6655 73,210.21472 73,211.43735 c 0,1.22263 20.291643,17.14954 45.09254,35.39313 24.8009,18.24359 46.53375,35.4779 48.29523,38.29848 2.46754,3.95116 1.97583,8.68185 -2.14212,20.60935 -2.93965,8.51457 -5.38679,17.70547 -5.43809,20.42421 -0.085,4.50345 -5.49428,5.01178 -60.80756,5.71429 l -60.714286,0.77111 -0.801758,34.94176 -0.801758,34.94177 59.178759,0.77252 59.178763,0.77252 4.60963,18.57143 c 2.5353,10.21428 6.26267,21.5744 8.28306,25.2447 2.02038,3.6703 3.24782,7.09778 2.72765,7.61664 -0.52018,0.51883 -22.16006,13.33257 -48.08863,28.47494 -25.928573,15.14238 -48.428573,29.15415 -50.000001,31.13729 -2.080466,2.62551 -6.904215,-4.98737 -17.74498,-28.00537 z"
       id="path3562"
       inkscape:connector-curvature="0" />
    <path
       style="opacity:0.07000002;fill:#800000"
       d="M 248.71429,642.62205 C 206.1201,631.13543 164.72313,610.31737 131.27847,583.56494 l -17.43582,-13.94693 45.2736,-26.58369 c 24.90048,-14.62104 45.98856,-27.74053 46.8624,-29.15443 0.87384,-1.4139 8.12596,2.59661 16.11582,8.91223 7.98987,6.31563 23.32959,15.61684 34.08827,20.66938 l 19.56124,9.18642 0.0566,47.85714 c 0.0431,36.502 -0.79082,47.81602 -3.51485,47.68382 -1.96428,-0.0953 -12.57143,-2.6004 -23.57143,-5.56683 z"
       id="path3564"
       inkscape:connector-curvature="0" />
    <path
       style="opacity:0.07000002;fill:#502d16"
       d="m 245.87631,640.77555 c -14.13231,-3.80731 -38.56088,-13.10213 -54.28571,-20.65517 -28.99956,-13.92923 -77.16572,-47.12924 -74.53946,-51.37862 0.78942,-1.27732 20.77229,-13.59014 44.40637,-27.36183 23.63409,-13.77168 42.97106,-26.2247 42.97106,-27.67337 0,-3.31534 11.20708,2.91963 31.42857,17.48501 8.64286,6.22538 20.21429,12.80308 25.71429,14.61711 5.5,1.81402 11.39836,4.40053 13.10746,5.7478 3.33196,2.62655 2.13202,90.94536 -1.28162,94.33072 -1.00421,0.9959 -13.38864,-1.30435 -27.52096,-5.11165 z"
       id="path3566"
       inkscape:connector-curvature="0" />
    <path
       style="opacity:0.07000002;fill:#502d16"
       d="m 350.41483,600.50506 0.69803,-50.71428 -44.2029,-0.36655 c -51.33055,-0.42563 -56.29013,-2.06023 -85.59877,-28.21183 -9.68196,-8.63902 -18.48893,-15.70734 -19.57105,-15.70734 -1.08212,0 -4.25862,-4.82143 -7.05887,-10.71428 -2.80026,-5.89286 -10.76254,-19.25918 -17.69397,-29.70295 -15.79032,-23.79169 -29.31052,-60.08894 -20.53039,-55.11729 2.61186,1.47893 2.82957,1.15023 0.74712,-1.12801 -1.94336,-2.12607 -22.7509,-3.49898 -61.42857,-4.05315 L 37.285714,403.95136 98,403.29964 l 60.71429,-0.65172 0,-34.28572 0,-34.28571 L 98,333.44819 l -60.714286,-0.6283 60,-1.51456 59.999996,-1.51455 1.00488,-8.51427 c 0.55267,-4.68284 4.74975,-15.93284 9.32684,-25 4.57708,-9.06715 7.71214,-16.48573 6.9668,-16.48573 -0.74535,0 5.20357,-8.66532 13.21982,-19.25625 26.14921,-34.5479 67.95228,-62.77852 103.39396,-69.82444 20.16215,-4.0083 76.0877,-6.31685 76.0877,-3.14082 0,1.41339 6.75,4.25202 15,6.30808 36.4302,9.07911 71.37649,36.74231 99.86426,79.05178 20.89857,31.03814 25.67269,49.10881 25.80214,97.66452 0.0597,22.44158 -0.70845,41.62015 -1.70737,42.61905 -0.99888,0.99889 -1.81617,4.77124 -1.81617,8.38299 0,10.58969 -8.63508,33.00637 -17.46454,45.33794 -24.53226,34.26272 -42.44323,60.17152 -42.48646,61.45809 -0.0257,0.80197 17.86249,14.30197 39.75429,30 l 39.80328,28.54191 -14.80328,9.49775 c -40.08983,25.72148 -85.46746,43.51917 -128.93237,50.56888 -14.229,2.30786 -26.93106,4.20129 -28.2268,4.2076 -1.29575,0.006 -2.04178,-22.80994 -1.65786,-50.7028 z M 363,508.10332 c 57.98997,-18.52406 101.42857,-80.20613 101.42857,-144.02683 0,-69.191 -45.5298,-125.22298 -110.4662,-135.947 -67.28438,-11.11178 -137.32429,38.80099 -156.71863,111.68289 -5.52393,20.75837 -5.37263,57.95504 0.31449,77.31696 15.43164,52.53735 57.77037,90.62538 107.31641,96.54209 22.6631,2.7064 36.31627,1.39849 58.12536,-5.56811 z"
       id="path3568"
       inkscape:connector-curvature="0" />
    <path
       style="opacity:0.07000002;fill:#502d16"
       d="m 247.74483,641.02457 c -22.61948,-6.08581 -55.81148,-19.91498 -75.73071,-31.55259 -20.12038,-11.75512 -56.17103,-37.87442 -56.12835,-40.66594 0.0157,-1.02982 19.94431,-13.29508 44.28571,-27.25612 24.3414,-13.96104 44.25709,-26.65418 44.25709,-28.20698 0,-1.5528 1.92857,-1.2227 4.28572,0.73355 2.35714,1.95626 4.28571,2.50433 4.28571,1.21794 0,-1.28639 4.17857,1.56646 9.28571,6.33967 14.49932,13.55127 25.33541,20.10237 40.76026,24.64214 l 14.23974,4.19097 -0.58454,41.09035 c -0.32149,22.5997 -1.31028,43.98322 -2.19729,47.51893 -1.85853,7.40828 -5.48385,7.67221 -26.75905,1.94808 z"
       id="path3570"
       inkscape:connector-curvature="0" />
    <path
       style="opacity:0.07000002;fill:#502d16"
       d="M 54.625854,487.64792 C 35.038916,447.16587 26.971093,416.24303 25.173057,374.75945 c -0.944202,-21.78427 -0.170269,-43.39277 2.046638,-57.14285 6.972919,-43.24865 26.621908,-89.45248 52.482814,-123.4113 6.527905,-8.57201 12.763297,-16.89191 13.856425,-18.48868 1.093129,-1.59677 2.726317,-2.1644 3.629309,-1.26141 0.902991,0.90299 -4.169957,9.1262 -11.27322,18.2738 C 78.81176,201.87661 73,210.26403 73,211.36771 c 0,1.10369 19.655869,16.34888 43.67971,33.87821 24.02384,17.52932 45.73992,35.26692 48.25797,39.41687 4.24681,6.99911 4.18726,8.45753 -0.82257,20.14497 -2.97045,6.92979 -5.40082,15.68174 -5.40082,19.44878 l 0,6.84916 L 98,331.87681 l -60.714286,0.77111 1.018951,34.28571 c 0.640117,21.53873 2.233491,35.06614 4.285714,36.38482 1.79672,1.15451 27.940884,2.1188 58.098141,2.14286 33.42355,0.0267 55.52081,1.15927 56.59719,2.90089 0.9712,1.57143 0.50786,2.85715 -1.02964,2.85715 -3.54026,0 1.10084,17.50384 8.49242,32.02903 2.9669,5.83026 5.39437,11.19173 5.39437,11.91439 0,1.58233 -98.125554,58.91372 -100.83378,58.91372 -1.042777,0 -7.650229,-11.89286 -14.683226,-26.42857 z"
       id="path3572"
       inkscape:connector-curvature="0" />
    <path
       style="opacity:0.07000002;fill:#502d16"
       d="m 166.07338,196.79932 c -25.02393,-18.69852 -46.44068,-35.52252 -47.5928,-37.38668 -3.57022,-5.77674 0.13298,-10.43805 19.80159,-24.92479 44.74566,-32.95701 98.92037,-55.086645 151.5897,-61.922345 l 15.44329,-2.004311 -2.0219,57.471936 -2.0219,57.47193 8.00718,0.33347 c 4.40394,0.1834 -0.91751,2.10596 -11.82545,4.27234 -23.56607,4.68035 -49.30904,16.28291 -68.04924,30.67031 -7.47788,5.74099 -14.54931,10.34306 -15.71429,10.22681 -1.16497,-0.11626 -22.59225,-15.51015 -47.61618,-34.20867 z"
       id="path3574"
       inkscape:connector-curvature="0" />
    <path
       style="opacity:0.07000002;fill:#502d16"
       d="m 630.54514,371.93363 -0.40228,-40.71428 -60,0 c -43.80953,0 -60,0.89947 -60,3.33333 0,6.79592 -3.07082,-0.096 -7.33175,-16.45481 -2.41296,-9.26397 -7.53615,-22.47767 -11.38487,-29.36378 -8.03299,-14.37259 -8.10605,-14.6576 -3.75729,-14.6576 1.7822,0 20.87878,-13.2176 42.43683,-29.37243 21.55806,-16.15484 41.89219,-31.26199 45.18695,-33.57143 5.90382,-4.13824 5.74632,-4.52973 -10.88419,-27.05614 -9.28107,-12.57143 -18.19621,-22.85714 -19.8114,-22.85714 -1.61519,0 -22.77,14.6855 -47.01068,32.63445 -42.91906,31.77931 -43.96432,32.80182 -39.88925,39.02115 7.52742,11.48831 -0.25998,9.5802 -13.06921,-3.20229 -14.19968,-14.17002 -43.60381,-30.63787 -63.77086,-35.71502 l -13.57143,-3.41666 0,-59.58939 0,-59.589385 9.28572,1.60751 c 22.21868,3.846418 56.39333,13.544884 74.937,21.266461 124.53811,51.857624 199.10594,176.142244 181.61129,302.697454 -1.69242,12.24283 -2.26117,6.72009 -2.57458,-25 z"
       id="path3576"
       inkscape:connector-curvature="0" />
    <path
       style="opacity:0.07000002;fill:#502d16"
       d="m 567.40183,540.82045 c -0.0639,-1.79082 -19.30759,-17.05713 -42.76384,-33.92514 l -42.64773,-30.66909 9.48092,-17.87131 c 5.21451,-9.82922 10.42059,-23.49148 11.56906,-30.36058 1.14848,-6.8691 3.53783,-13.43387 5.30967,-14.58837 1.77183,-1.15451 29.90009,-2.1188 62.50723,-2.14286 l 59.28572,-0.0437 0,7.02632 c 0,12.4564 -19.47981,61.98181 -33.50961,85.19473 -14.67269,24.27661 -29.04337,42.6533 -29.23142,37.38005 z"
       id="path3578"
       inkscape:connector-curvature="0" />
  </g>
</svg>
